<svg width="633.76" height="189.63" viewBox="0 0 633.76 189.63" xmlns="http://www.w3.org/2000/svg" ><g transform="translate(0,0) scale(0.31)">
  <polygon points="432,0 512,80 512,512 432,432" fill="#A0B22D" />
  <polygon points="0,432 432,432 512,512 80,512" fill="#E5FE40" />
  <rect x="0" y="0" width="432" height="432" fill="#0d0d0d" />
  <rect x="72" y="256" width="80" height="96" fill="#ffffff" />
  <rect x="176" y="176" width="80" height="176" fill="#ffffff" />
  <rect x="280" y="96" width="80" height="256" fill="#ffffff" />
</g><g transform="translate(188,30.5)"><path d="M17.95 97.02L0 97.02L0 1.98L58.08 1.98L58.08 19.93L17.95 19.93L17.95 40.52L50.16 40.52L50.16 58.48L17.95 58.48L17.95 97.02M86.59 15.84L68.64 15.84L68.64 0L86.59 0L86.59 15.84M86.59 97.02L68.64 97.02L68.64 25.74L86.59 25.74L86.59 97.02M170.54 97.02L152.33 97.02L152.33 63.36Q152.33 60.92 152.06 57.12Q151.8 53.33 150.41 49.5Q149.03 45.67 145.89 43.1Q142.76 40.52 137.02 40.52L137.02 40.52Q134.71 40.52 132.07 41.25Q129.43 41.98 127.12 44.06Q124.81 46.13 123.32 50.16Q121.84 54.19 121.84 60.85L121.84 60.85L121.84 97.02L103.62 97.02L103.62 25.74L119.59 25.74L119.59 33.07Q122.03 30.29 125.33 28.18L125.33 28.18Q132.2 23.63 142.69 23.63L142.69 23.63Q151.07 23.63 156.35 26.47Q161.63 29.3 164.57 33.66Q167.51 38.02 168.76 42.74Q170.02 47.45 170.28 51.35Q170.54 55.24 170.54 57.02L170.54 57.02L170.54 97.02M203.02 97.02L185.06 97.02L185.06 1.98L225.19 1.98Q226.58 1.98 228.92 2.08Q231.26 2.18 233.11 2.51L233.11 2.51Q241.63 3.83 247.07 8.12Q252.52 12.41 255.09 18.91Q257.66 25.41 257.66 33.4L257.66 33.4Q257.66 41.38 255.06 47.88Q252.45 54.38 247.01 58.67Q241.56 62.96 233.11 64.28L233.11 64.28Q231.26 64.55 228.89 64.68Q226.51 64.81 225.19 64.81L225.19 64.81L203.02 64.81L203.02 97.02M203.02 18.74L203.02 48.05L224.4 48.05Q225.79 48.05 227.44 47.92Q229.09 47.78 230.47 47.39L230.47 47.39Q234.1 46.4 236.08 44.06Q238.06 41.71 238.82 38.84Q239.58 35.97 239.58 33.4L239.58 33.4Q239.58 30.82 238.82 27.95Q238.06 25.08 236.08 22.74Q234.1 20.39 230.47 19.4L230.47 19.4Q229.09 19.01 227.44 18.88Q225.79 18.74 224.4 18.74L224.4 18.74L203.02 18.74M287.5 97.02L269.54 97.02L269.54 0L287.5 0L287.5 97.02M324.46 99L324.46 99Q316.8 99 311.49 96.06Q306.17 93.13 303.44 88.21Q300.7 83.29 300.7 77.35L300.7 77.35Q300.7 72.4 302.21 68.31Q303.73 64.22 307.13 61.08Q310.53 57.95 316.27 55.84L316.27 55.84Q320.23 54.38 325.71 53.26Q331.19 52.14 338.12 51.08L338.12 51.08Q342.21 50.49 346.76 49.83L346.76 49.83Q346.24 45.41 343.86 43.1L343.86 43.1Q340.82 40.13 333.7 40.13L333.7 40.13Q329.74 40.13 325.45 42.04Q321.16 43.96 319.44 48.84L319.44 48.84L303.2 43.69Q305.91 34.85 313.37 29.3Q320.83 23.76 333.7 23.76L333.7 23.76Q343.13 23.76 350.46 26.66Q357.79 29.57 361.55 36.7L361.55 36.7Q363.66 40.66 364.06 44.62Q364.45 48.58 364.45 53.46L364.45 53.46L364.45 97.02L348.74 97.02L348.74 88.24Q344.52 93.26 339.77 95.77L339.77 95.77Q333.7 99 324.46 99M328.28 84.88L328.28 84.88Q333.23 84.88 336.63 83.13Q340.03 81.38 342.05 79.13Q344.06 76.89 344.78 75.37L344.78 75.37Q346.17 72.47 346.43 68.57L346.43 68.57Q346.57 66.26 346.57 64.35L346.57 64.35Q342.14 65.14 338.98 65.67L338.98 65.67Q334.03 66.59 330.99 67.32Q327.95 68.05 325.64 68.9L325.64 68.9Q323 69.96 321.39 71.18Q319.77 72.4 319.01 73.85Q318.25 75.31 318.25 77.09L318.25 77.09Q318.25 79.53 319.47 81.28Q320.69 83.03 322.94 83.95Q325.18 84.88 328.28 84.88M445.76 97.02L427.55 97.02L427.55 63.36Q427.55 60.92 427.28 57.12Q427.02 53.33 425.63 49.5Q424.25 45.67 421.11 43.1Q417.98 40.52 412.24 40.52L412.24 40.52Q409.93 40.52 407.29 41.25Q404.65 41.98 402.34 44.06Q400.03 46.13 398.54 50.16Q397.06 54.19 397.06 60.85L397.06 60.85L397.06 97.02L378.84 97.02L378.84 25.74L394.81 25.74L394.81 33.07Q397.25 30.29 400.55 28.18L400.55 28.18Q407.42 23.63 417.91 23.63L417.91 23.63Q426.29 23.63 431.57 26.47Q436.85 29.3 439.79 33.66Q442.73 38.02 443.98 42.74Q445.24 47.45 445.5 51.35Q445.76 55.24 445.76 57.02L445.76 57.02L445.76 97.02" fill="#0d0d0d" /></g></svg>